<?xml version="1.0" encoding="utf-8"?>
<!-- Generator: Adobe Illustrator 16.0.0, SVG Export Plug-In . SVG Version: 6.00 Build 0)  -->
<!DOCTYPE svg PUBLIC "-//W3C//DTD SVG 1.1//EN" "http://www.w3.org/Graphics/SVG/1.1/DTD/svg11.dtd">
<svg version="1.1" id="Слой_1" xmlns="http://www.w3.org/2000/svg" xmlns:xlink="http://www.w3.org/1999/xlink" x="0px" y="0px"
	 width="292px" height="292px" viewBox="0 0 292 292" enable-background="new 0 0 292 292" xml:space="preserve">
<g>
	<path fill="#FFFFFF" d="M259.892,53.517c-0.022-0.04-0.055-0.081-0.088-0.121C215.421,1.915,146.021-13.118,86.629,12.614
		c-10.58,4.565-20.844,10.442-30.587,17.629C5.934,67.215-9.717,131.502,6.842,187.76c4.92,16.769,12.71,32.823,23.306,47.228
		c43.305,58.887,133.221,74.689,194.119,34.285c0.463-0.304,0.93-0.617,1.387-0.938C297.726,219.433,312.919,122.918,259.892,53.517
		z M234.298,259.747c-3.128,2.557-6.334,4.945-9.605,7.155c-40.157,27.195-90.281,28.827-133.022,10.907
		c-22.63-9.483-43.193-24.454-59.119-44.005c-11.488-14.115-19.535-29.896-24.366-46.433C-5.987,138.93,7.349,84.041,42.053,45.751
		c13.103-14.454,28.426-25.154,44.913-32.349c57.109-24.897,128.287-7.709,170.437,41.175
		c24.252,31.689,34.351,69.232,30.884,105.351C284.693,197.462,266.469,233.452,234.298,259.747z"/>
	<path fill="#FFFFFF" d="M268.696,85.061c-4.285-8.729-9.526-17.138-15.725-25.169c-0.015-0.023-0.032-0.04-0.049-0.064
		c-22.605-28.546-57.115-46.763-93.292-50.059c-0.049-0.009-0.111-0.009-0.177,0.008c-0.008,0-0.008,0-0.014,0
		c-4.312-0.409-8.636-0.626-12.961-0.626c-0.023,0-0.056,0-0.081,0c-0.017,0-0.04,0-0.056,0c-0.031,0-0.064,0-0.096,0.008
		c-31.77,0.812-60.422,10.876-85.687,30.033c-0.337,0.023-0.667,0.152-0.925,0.361c-1.335,1.076-2.645,2.178-3.931,3.297
		c-26.126,22.78-41.69,54.358-46.015,88.709c-0.017,0.096-0.008,0.177,0.008,0.257c-0.032,0.307-0.047,0.611-0.081,0.926v0.007
		c0,0.017,0,0.033,0,0.049c-2.669,36.136,7.324,69.673,29.367,98.389c-0.073,0.112-0.097,0.24,0.023,0.368
		c0.242,0.29,0.483,0.571,0.725,0.852c0.104,0.131,0.272,0.194,0.466,0.211c23.514,27.308,54.447,43.924,90.212,48.493
		c0.162,0.023,0.515,0.008,0.893-0.059c0,0.024-0.008,0.05-0.008,0.073c-0.017,0.167,0.402,0.193,0.466,0.193
		c36.007,2.699,71.741-6.818,100.093-29.609c0.385-0.008,0.77-0.152,1.036-0.377c27.533-23.418,46.459-55.887,49.625-92.328
		c0.009-0.087,0-0.169-0.023-0.248C284.478,132.515,279.808,107.692,268.696,85.061z M188.269,272.618
		c-2.572,0.867-5.172,1.656-7.8,2.353c-7.926,1.458-25.429,4.2-36.506,4.786c-3.039-0.072-6.069-0.235-9.084-0.508
		c-0.433-0.201-0.69-0.442-0.722-0.755c0.457-4.492,0.907-8.986,1.366-13.482c29.503,1.77,56.682-5.786,81.234-22.532
		c2.001-1.367,3.552-1.445,4.888-0.756c2.082,2.566,4.171,5.129,6.262,7.686c0.014,0.024,0.031,0.039,0.047,0.064
		c0.179,0.233,0.354,0.449,0.532,0.675c0.225,0.273,0.248,0.611,0.088,1.003c-4.429,3.354-8.979,6.417-13.635,9.181
		C205.694,265.103,194.159,270.148,188.269,272.618z M125.056,277.891c-0.009,0-0.016,0-0.025-0.008
		c-7.267-1.792-20.112-5.458-26.336-7.372c-2.459-0.957-4.887-1.984-7.283-3.079c-7.532-4.147-22.902-13.641-33.989-22.236
		c-4.332-3.849-8.474-8.005-12.418-12.466c-0.596-1.319-0.579-2.404,0.183-3.176l0.008-0.009c2.548-2.065,5.105-4.14,7.654-6.214
		c0.611-0.49,1.221-0.989,1.833-1.479c0.24,0.063-0.378,1.703,1.735,4.172c7.123,8.295,15.854,15.024,24.913,21.039
		c15.081,10.007,32.695,15.274,50.484,17.651c-0.483,4.68-0.973,9.351-1.455,14.028
		C128.577,278.494,126.808,278.205,125.056,277.891z M39.858,65.149c0.008-0.008,0.017-0.017,0.033-0.033
		c3.103-3.713,7.419-8.811,11.231-13.176c0-0.008,0-0.008,0.008-0.008c2.83-2.943,5.804-5.779,8.931-8.529
		c0.144,0.168,0.282,0.33,0.434,0.49c0.016,0.024,0.04,0.05,0.064,0.073c2.131,2.628,4.276,5.249,6.423,7.87
		c0,0.008,0,0.008,0,0.008c0.522,1.679,0.088,3.392-2.058,5.248c-6.947,5.998-12.71,13.186-18.096,20.563
		c-0.972,1.336-5.024,9.335-9.269,18.82c-6.841,15.274-14.188,34.397-10.048,35.781c-4.06-0.409-8.111-0.819-12.171-1.236
		c-0.884-0.267-1.311-1.319-1.422-2.855C17.373,104.692,26.136,83.461,39.858,65.149z M132.322,12.719
		c0.05-0.009,0.089-0.017,0.129-0.009c8.354-0.812,16.786-0.899,25.138-0.346c-0.457,4.544-0.915,9.076-1.382,13.609
		c-0.362-0.674-19.953,0.098-22.622,0.324c-14.413,1.149-29.785,5.803-42.47,12.685c-4.759,2.588-18.36,14.164-21.416,10.426
		c-6.068-7.46-6.841-8.569-0.539-13.191c0.048-0.041,0.088-0.072,0.137-0.104C88.542,22.96,109.725,15.13,132.322,12.719z
		 M161.176,14.158c0.21-0.651,0.827-1.062,1.744-1.278c33.988,5.064,63.227,21.279,85.735,47.478
		c-3.242,2.637-6.487,5.266-9.727,7.911c-2.58,1.125-4.679-4.583-6.948-6.995c-3.744-3.979-8.015-7.419-12.249-10.836
		c-13.868-11.174-31.926-19.237-49.417-22.301c-8.19-1.422-9.967-2.242-9.929-6.31C160.653,19.271,160.909,16.714,161.176,14.158z
		 M242.528,68.863c2.613-2.122,5.219-4.237,7.831-6.359c21.101,27.879,30.66,59.689,28.546,94.474
		c-1.021,1.27-3.48,0.957-9.133,0.379c-5.723-0.588-3.384-19.543-3.85-25.147c-0.836-10.226-3.786-20.121-7.211-29.72
		c-3.474-9.727-8.931-18.586-14.752-27.043C242.013,72.617,241.767,70.567,242.528,68.863z M10.646,134.204
		c-0.042,0.497-0.073,0.996-0.098,1.501c-0.023,0.403-0.047,0.797-0.056,1.199C10.46,135.731,10.509,134.807,10.646,134.204z
		 M13.258,134.002c0.162-0.104,0.346-0.193,0.555-0.24c4.099,0.418,8.207,0.836,12.315,1.254c-1.149,16.6,0.547,32.22,5.347,48.201
		c2.378,7.927,6.197,15.329,10.161,22.55c2.106,3.618,4.389,7.113,6.865,10.481c1.503,2.163,2.573,3.546,3.346,4.374
		c-3.362,2.709-6.713,5.426-10.074,8.151C20.596,200.798,11.047,168.964,13.258,134.002z M53.95,219.843
		c0.057-0.098,0.163-0.081,0.346,0.111C54.201,219.89,54.079,219.858,53.95,219.843z M135.402,263.646
		c-0.152-0.121-0.37-0.186-0.627-0.192c-0.017,0-0.041,0-0.057-0.009c-0.015,0-0.032,0-0.048,0
		c-0.338-0.032-0.668-0.063-1.005-0.104c-0.072-0.009-0.16-0.009-0.249,0c-31.127-4.222-57.672-18.657-78.155-42.526
		c-0.024-0.033-0.057-0.057-0.089-0.074C41.836,204.697,33.692,185.91,30.3,166.03c-1.841-10.652-2.307-21.616-1.479-32.646
		c0-0.017,0-0.04,0-0.056v-0.009c-0.008-0.049-0.008-0.089-0.008-0.137c0.023-0.056,0.041-0.113,0.049-0.177
		c1.655-12.781,4.991-24.784,9.984-35.935c7.243-16.15,17.951-30.491,32.035-42.734c0.169-0.09,0.314-0.178,0.417-0.266
		c0.291-0.241,0.572-0.475,0.861-0.707c0.072-0.057,0.144-0.137,0.192-0.21c24.527-18.674,52.953-27.42,83.774-25.387
		c0.129,0.297,0.475,0.466,0.813,0.507c0.369,0.032,0.73,0.079,1.101,0.112c0.441,0.049,1.077-0.088,1.464-0.442
		c12.725,1.802,24.671,5.322,35.749,10.523c15.626,7.299,29.51,17.91,41.359,31.642c-0.138,0.192-0.169,0.442-0.008,0.635
		c0.234,0.289,0.466,0.57,0.699,0.852c0.16,0.193,0.434,0.282,0.748,0.29c19.148,25.283,27.67,54.199,25.33,85.887
		c-1.045,6.182-2.346,12.285-3.963,18.24c-6.373,23.539-17.629,44.931-36.89,61.057c-0.531-0.402-1.434-0.265-1.921,0.137
		c-0.289,0.233-0.581,0.467-0.861,0.7c-0.25,0.201-0.482,0.507-0.475,0.812C194.658,257.352,166.216,265.864,135.402,263.646z
		 M255.464,221.586c-2.3,3.53-20.17,23.82-24.029,26.456c-2.01-2.467-4.019-4.937-6.035-7.403v-0.009
		c-0.852-2.579,0.732-4.669,5.867-9.301c13.753-12.404,22.251-29.809,28.288-46.979c0.37-1.046,7.983-26.031,4.929-26.369
		c4.797,0.531,9.606,1.054,14.413,1.577c0.009,0,0.018,0.007,0.025,0.007c-0.177,0.162-0.297,0.362-0.33,0.611
		c-0.427,3.394-0.964,6.744-1.616,10.04C272.773,188.531,265.874,205.573,255.464,221.586z M58.485,41.515
		c0,0.017,0.016,0.024,0.023,0.04c-0.015-0.016-0.023-0.023-0.038-0.023C58.477,41.523,58.477,41.523,58.485,41.515z M61.836,39.472
		c0.042-0.071,0.115-0.152,0.21-0.249C61.958,39.319,61.886,39.4,61.836,39.472c-0.007,0.009-0.007,0.017-0.007,0.024h-0.008
		C61.821,39.488,61.821,39.48,61.836,39.472z M190.992,273.294c-11.906,4.565-24.696,6.479-37.351,7.427
		c0.638-0.065,0.065-0.12-1.165-0.16c13.298-0.876,25.926-3.385,38.804-7.591c0.94-0.305,3.039-1.22,5.806-2.515
		c7.225-2.91,14.252-6.455,21.061-10.626c0.041-0.025,0.071-0.04,0.113-0.066c6.793-3.715,12.058-6.985,11.641-7.886
		c0.32,0.361,1.164,0.152,1.744-0.097C220.406,260.358,204.521,268.108,190.992,273.294z M233.461,249.368
		c1.688-1.445,3.329-2.94,4.937-4.46C236.267,247.319,234.53,248.953,233.461,249.368z"/>
	<path fill="#FFFFFF" d="M160.064,84.973c4.664,1.504,9.165,3.609,13.419,6.198c-6.047-3.184-12.597-5.467-19.432-6.633
		c22.053,4.583,41.441,23.186,49.176,43.958c14.709,39.543-21.785,79.327-62.488,77.245c-51.795-8.319-71.482-68.363-34.391-105.51
		c3.601-3.61,7.315-6.576,11.094-8.956c-4.687,2.597-9.077,5.78-13.063,9.39c0.402-0.426,0.812-0.844,1.229-1.262
		c4.8-4.808,9.784-8.489,14.856-11.175c-15.853,7.412-28.369,21.77-34.712,38.217c-15.892,41.159,19.729,79.739,59.417,81.836
		c0.04,0,0.087,0.009,0.127,0.009c0.017,0,0.032,0,0.049,0c0.072,0,0.146,0,0.233-0.009c28.361-1.511,50.422-16.551,60.799-43.45
		C220.47,128.303,193.999,93.688,160.064,84.973z M146.857,207.173c-0.998-0.049-1.979-0.121-2.95-0.217
		c4.759-0.024,9.35-0.475,13.754-1.359C154.134,206.433,150.523,206.972,146.857,207.173z"/>
	<path fill="#FFFFFF" d="M117.458,91.268c10.805-5.981,23.192-8.859,35.902-6.841c0.233,0.04,0.468,0.072,0.691,0.111
		C142.155,82.079,129.486,83.694,117.458,91.268z"/>
	<path fill="#FFFFFF" d="M146.906,82.955c4.461,0.225,8.866,0.917,13.158,2.018c-12.619-4.075-26.406-3.763-39.6,3.256
		C128.536,84.451,137.475,82.48,146.906,82.955z"/>
</g>
</svg>
