<?xml version="1.0" encoding="utf-8"?>
<!-- Generator: Adobe Illustrator 16.0.0, SVG Export Plug-In . SVG Version: 6.00 Build 0)  -->
<!DOCTYPE svg PUBLIC "-//W3C//DTD SVG 1.1//EN" "http://www.w3.org/Graphics/SVG/1.1/DTD/svg11.dtd">
<svg version="1.1" id="Слой_1" xmlns="http://www.w3.org/2000/svg" xmlns:xlink="http://www.w3.org/1999/xlink" x="0px" y="0px"
	 width="231px" height="231px" viewBox="0 0 231 231" enable-background="new 0 0 231 231" xml:space="preserve">
<g>
	<path fill="#FFFFFF" d="M124.99,229.403c0.258,0,0.507,0,0.757,0c0.251,0,0.514-0.065,0.747-0.185
		c0.01-0.009,0.01-0.009,0.01-0.009c0.819-0.112,1.639-0.232,2.458-0.361c2.289-0.265,4.565-0.609,6.833-1.029
		c0.033-0.007,0.066-0.007,0.105-0.017c2.766-0.387,5.516-0.914,7.059-1.526c0.685-0.168,1.357-0.338,2.035-0.53
		c0.257,0.048,0.536,0.016,0.76-0.057c0.348-0.121,0.701-0.232,1.062-0.346c0.363-0.12,0.925-0.394,1.069-0.813
		c0.018-0.023,0.018-0.047,0.027-0.071c0,0,0,0,0-0.01c0.144-0.03,0.29-0.07,0.434-0.125h0.007
		c2.702,0.062,16.528-5.081,17.838-7.013c0.122-0.055,0.241-0.111,0.354-0.168c0.611,0.33,1.592-0.031,2.002-0.457
		c0.057-0.058,0.12-0.123,0.185-0.177c0.056-0.034,0.105-0.057,0.161-0.09c0.281-0.146,0.675-0.411,0.747-0.763
		c5.901-3.137,11.472-6.763,16.722-10.885c0.056-0.032,0.109-0.073,0.162-0.106c0.257-0.056,0.497-0.159,0.675-0.295
		c0.008,0,0.008,0,0.008,0c0.183-0.065,0.361-0.162,0.505-0.275c0.138-0.118,0.281-0.24,0.427-0.353
		c0.128-0.105,0.249-0.242,0.329-0.403c2.324-1.912,4.541-3.921,6.663-6.003c15.3-13.933,26.819-31.666,32.277-52.021
		c2.806-10.442,4.018-21.577,3.321-33.241c-0.339-5.644-1.03-11.158-2.066-16.513c0-0.008,0-0.016-0.008-0.033
		c-1.64-9.839-4.855-19.654-9.381-29.028c-0.041-0.081-0.082-0.16-0.114-0.241c-0.634-1.334-1.286-2.653-1.968-3.971
		c-3.41-6.455-7.372-12.541-11.915-18.256c-0.178-0.225-0.354-0.45-0.53-0.674c-0.05-0.065-0.097-0.138-0.152-0.202h-0.009
		c-0.008-0.016-0.016-0.025-0.031-0.033c-11.094-13.963-25.17-25.636-40.878-33.031c-11.352-5.346-23.562-8.449-36.104-8.554
		c-7.196-0.868-14.6-1.117-22.163-0.708c-0.097,0.009-0.201,0.009-0.297,0.017c-0.098,0.016-0.201,0.023-0.299,0.039
		C95.07,2.126,85.777,4.409,77.04,7.625c-0.115,0.033-0.233,0.064-0.346,0.104C76.565,7.77,76.26,7.89,75.809,8.075
		c-0.024,0.008-0.048,0.016-0.064,0.024c-4.365,1.656-8.585,3.546-12.661,5.652c0,0.008,0,0.008-0.009,0.008
		c-0.218,0.026-0.437,0.107-0.64,0.209c-0.011,0.006-0.024,0.009-0.036,0.015c-0.079,0.04-0.16,0.089-0.241,0.136
		c-0.007,0-0.007,0-0.007,0c-0.081,0.041-0.162,0.089-0.242,0.127c-0.209,0.114-0.41,0.25-0.538,0.419
		c-1.213,0.652-2.419,1.327-3.602,2.019c-5.868,3.11-11.141,6.335-12.484,8.425c-0.458,0.354-0.924,0.714-1.375,1.083
		c-0.425,0.082-0.844,0.307-1.086,0.548c-0.257,0.265-0.515,0.531-0.772,0.796c-0.08,0.08-0.167,0.208-0.217,0.354
		c-1.679,1.399-3.327,2.854-4.918,4.357c-0.007,0-0.007,0.008-0.016,0.016c-3.224,2.725-6.978,6.166-7.766,8.04
		c0,0-0.008,0.007,0,0.007c-0.321,0.354-0.627,0.708-0.932,1.069c-0.491,0.072-0.94,0.305-1.118,0.731
		c0.112-0.45-3.022,3.577-5.805,7.822c-0.016,0.032-0.04,0.064-0.064,0.097c-2.057,2.935-3.963,5.965-5.731,9.1
		c-0.136,0.105-0.25,0.241-0.322,0.403c-0.16,0.384-1.077,2.177-2.234,4.565c-0.056,0.113-0.113,0.225-0.168,0.346
		c-2.614,5.201-4.816,10.579-6.618,16.142c-0.232,0.153-0.409,0.385-0.481,0.683c-0.082,0.353-0.168,0.715-0.258,1.078
		c-0.03,0.136,0,0.265,0.081,0.377c-0.209,0.684-0.402,1.359-0.595,2.043c-0.788,2.146-1.697,5.996-2.301,9.557
		c-0.007,0.009-0.007,0.017-0.007,0.024c-0.586,2.879-1.07,5.805-1.446,8.763c-0.089,0.112-0.146,0.249-0.146,0.385
		c0,0.25,0,0.491,0,0.739c-0.562,4.679-0.868,9.455-0.908,14.31c-0.049,5.668,0.417,11.303,1.35,16.85
		c3.249,19.293,12.148,37.559,24.792,52.808c21.802,26.304,54.737,43.676,88.992,42.053
		C118.488,230.104,121.752,229.821,124.99,229.403z M107.974,227.329c-0.797-0.049-1.593-0.112-2.388-0.186
		c0.706-6.993,1.422-13.996,2.129-20.981c2.413,0.184,4.823,0.29,7.251,0.307c0.008,0,0.016,0,0.023,0
		c2.155-0.024,4.292-0.105,6.438-0.25c0.638,7.052,1.271,14.109,1.9,21.157c-0.355,0.024-0.708,0.05-1.054,0.066
		C117.516,227.4,112.739,227.368,107.974,227.329z M19.585,172.432c-0.86-1.415-1.673-2.854-2.461-4.31
		c5.845-3.07,11.698-6.141,17.541-9.197c2.502,4.631,5.371,9.004,8.643,13.127c-5.137,4.165-10.258,8.338-15.396,12.502
		c-0.303-0.377-0.594-0.764-0.891-1.141C25.774,180.334,22.318,175.985,19.585,172.432z M8.434,147.045
		c6.335-1.794,12.654-3.595,18.98-5.387c1.577,5.13,3.57,10.081,5.998,14.863c0.024,0.057,0.048,0.112,0.08,0.169
		c-5.853,3.055-11.689,6.109-17.541,9.182c-0.25-0.482-0.491-0.965-0.716-1.449C12.534,158.806,10.267,153.032,8.434,147.045z
		 M189.206,199.24c-0.014,0.017-0.031,0.034-0.049,0.05c-0.659,0.562-1.315,1.126-1.993,1.672
		c-2.731-3.369-5.475-6.736-8.214-10.097c-1.528-1.882-3.058-3.763-4.584-5.636c-0.08-0.097,0.018-0.281,0.226-0.522
		c0.627-0.523,1.247-1.054,1.849-1.601c0.779-0.603,1.562-1.174,1.897-1.485c2.097-1.923,4.051-4.013,5.94-6.144
		c3.593,3.007,7.182,6.006,10.78,9.012c1.623,1.351,3.249,2.709,4.872,4.076c-1.036,1.214-2.105,2.396-3.199,3.562
		C194.457,194.288,191.489,197.103,189.206,199.24z M116.043,205.092c-1.711-0.008-3.416-0.056-5.129-0.144
		c-1.02-0.216-2.033-0.24-3.054-0.072c0.016-0.191,0.04-0.387,0.057-0.57c0.008-0.056,0.008-0.105,0.016-0.153
		c4.309,0.563,9.018,0.219,13.303-0.137c0.025,0.306,0.055,0.61,0.083,0.916C119.564,205.036,117.803,205.084,116.043,205.092z
		 M83.567,222.716c-0.009-0.017-0.009-0.04,0-0.073c0.015-0.05,0.031-0.104,0.048-0.152c0.056-0.16,0.161-0.403,0.273-0.78
		c0.441-1.415,0.876-2.822,1.319-4.229c1.503-4.814,2.997-9.63,4.509-14.445c4.71,1.325,9.479,2.273,14.325,2.885
		c-0.692,6.873-1.39,13.748-2.09,20.621c-5.868-0.757-11.623-1.945-17.323-3.579c-0.362-0.104-0.612-0.137-0.781-0.16
		C83.751,222.771,83.662,222.746,83.567,222.716z M34.417,192.103c-0.048-0.057-0.105-0.112-0.161-0.169
		c-1.552-1.657-3.065-3.359-4.519-5.112c5.146-4.174,10.283-8.353,15.429-12.533c3.142,3.707,6.559,7.139,10.256,10.314
		c-4.269,5.112-8.538,10.225-12.806,15.338c-0.25-0.21-0.5-0.428-0.747-0.643C39.94,197.472,36.973,194.611,34.417,192.103z
		 M42.825,30.005c0,0,0.009-0.016,0.016-0.016c0.073-0.064,0.153-0.129,0.235-0.193c2.997,3.69,6.012,7.388,9.019,11.086
		c1.366,1.671,2.717,3.329,4.076,5c-0.048,0.041-0.097,0.072-0.137,0.121c-0.36,0.201-1.19,0.932-2.228,1.938
		c-0.014,0.016-0.023,0.022-0.032,0.031c-2.669,2.404-5.192,4.96-7.564,7.654c-3.586-2.99-7.187-5.997-10.772-9.003
		c-1.584-1.318-3.175-2.646-4.758-3.972c1.212-0.9,2.041-2.339,1.935-2.765c0.403-0.458,0.823-0.917,1.256-1.375
		C36.708,35.697,40.59,32.055,42.825,30.005z M124.775,3.573c-0.717,6.938-1.424,13.868-2.131,20.805
		c-4.591-0.33-9.165-0.345-13.755-0.015c-0.627-6.979-1.253-13.957-1.874-20.934c0.572-0.055,1.133-0.097,1.704-0.129
		C114.075,3.026,119.421,3.115,124.775,3.573z M125.111,204.812c-0.039-0.451-0.072-0.899-0.121-1.351
		c4.205-0.474,8.354-1.229,12.444-2.275c0.13,0.466,0.259,0.934,0.396,1.398C133.642,203.646,129.414,204.379,125.111,204.812z
		 M154.783,195.027c0,0.017,0,0.026,0.008,0.034c0.121,0.24,0.243,0.481,0.37,0.725c-4.414,2.241-8.98,4.066-13.715,5.521
		c-0.077-0.307-0.159-0.602-0.248-0.909C145.869,198.968,150.396,197.175,154.783,195.027z M141.792,202.528
		c4.814-1.455,9.479-3.303,13.996-5.528c3.208,6.109,6.408,12.235,9.606,18.351c-5.724,2.967-11.696,5.49-17.861,7.534
		C145.626,216.1,143.713,209.305,141.792,202.528z M155.715,192.745c-0.015,0.008-0.039,0.017-0.055,0.025
		c-0.145,0.062-0.289,0.153-0.403,0.256c-0.039,0.033-0.079,0.072-0.12,0.105c-0.032,0.039-0.063,0.072-0.094,0.112
		c-0.023,0.032-0.052,0.072-0.075,0.104c-0.015,0.024-0.032,0.057-0.04,0.08c-5.087,2.619-10.378,4.702-15.892,6.279
		c-0.243,0.07-0.74,0.239-0.991,0.521c-4.541,1.198-9.139,2.003-13.818,2.437c-0.249-0.178-0.778-0.121-0.98-0.104
		c-4.983,0.419-10.941,0.957-15.9-0.112c-0.161-0.153-0.426-0.217-0.676-0.25c-5.65-0.626-11.157-1.76-16.592-3.416
		c-0.087-0.097-0.208-0.169-0.361-0.216c-5.733-1.818-11.23-4.143-16.472-7.066c-0.217-0.123-0.467-0.194-0.716-0.21
		c-4.38-2.532-8.521-5.419-12.435-8.651c-0.017-0.03-0.041-0.072-0.08-0.104c-4.262-3.602-8.169-7.557-11.698-11.873
		c0,0,0,0,0-0.009c-0.023-0.048-0.048-0.096-0.097-0.151c-3.689-4.527-6.896-9.367-9.606-14.536
		c-2.83-5.401-5.081-11.021-6.809-16.865c-1.454-5.281-2.459-10.628-2.982-16.079c0-0.007,0-0.015,0-0.022
		c-0.458-5.627-0.394-11.215,0.137-16.827c0-5.362,1.656-11.189,3.207-16.35c0.008-0.01,0.008-0.01,0.008-0.01
		c0.089-0.104,0.161-0.224,0.21-0.369c1.808-5.845,4.171-11.424,7.113-16.776c0.017-0.025,0.026-0.049,0.033-0.074
		c0.015-0.008,0.022-0.023,0.022-0.048c0.074-0.112,0.098-0.232,0.081-0.354c2.646-4.638,5.644-9.011,9.02-13.144
		c0.017-0.007,0.024-0.023,0.032-0.032c0.009-0.016,0.025-0.024,0.033-0.04c0.024-0.024,0.041-0.049,0.058-0.081
		c0.014-0.016,0.023-0.032,0.023-0.04c0.007-0.009,0.007-0.017,0.007-0.017c0.007-0.008,0.007-0.008,0.007-0.008
		c3.538-4.228,7.446-8.071,11.69-11.592c0.129-0.104,0.241-0.233,0.258-0.369c4.092-3.313,8.416-6.238,13.008-8.787
		c0.273-0.081,0.521-0.193,0.69-0.281c0.072-0.041,0.153-0.082,0.226-0.122c0.273-0.105,0.513-0.25,0.658-0.402
		c4.799-2.5,9.777-4.558,14.945-6.134c0.322,0.089,0.731,0.049,1.005-0.031c0.177-0.049,0.361-0.105,0.53-0.162
		c0.282-0.081,0.788-0.281,1.021-0.586c4.181-1.069,8.4-1.833,12.702-2.3c0.256,0.249,0.755,0.313,1.028,0.291
		c0.185-0.016,0.369-0.033,0.555-0.049c0.16-0.016,0.329-0.048,0.489-0.104c0.009,0,0.009-0.008,0.018-0.008
		c0.007,0,0.023,0,0.031,0c0.145-0.017,0.29-0.048,0.444-0.097c5.03-0.377,10.047-0.305,15.062,0.153
		c0.155,0.113,0.363,0.177,0.564,0.177c5.274,0,10.9,1.615,15.965,3.111c0.187,0.352,0.756,0.442,1.126,0.426
		c0.023,0,0.048,0,0.072,0c0.104,0.023,0.194,0.039,0.29,0.047c-0.282,0-0.154-0.009,0.097,0.072
		c0.184,0.048,0.401,0.081,0.625,0.072c5.348,1.745,10.469,3.972,15.388,6.712c0.048,0.025,0.096,0.049,0.153,0.057
		c4.711,2.637,9.123,5.692,13.279,9.141c0.025,0.024,0.049,0.039,0.081,0.048c4.083,3.441,7.821,7.218,11.255,11.311
		c-0.025,0.121,0,0.233,0.096,0.329c0.258,0.25,0.516,0.499,0.772,0.749l0.01,0.008c0.014,0.023,0.037,0.047,0.062,0.055
		c0.009,0.017,0.009,0.024,0.017,0.009c3.512,4.437,6.574,9.164,9.236,14.172c2.74,5.274,4.944,10.748,6.617,16.456
		c0.048,0.185,0.103,0.345,0.152,0.531c0,0-0.01,0.007,0,0.007c0,0.008,0,0.008,0,0.016c0.007,0.049,0.023,0.096,0.047,0.137
		c-0.01,0.008,0,0.016,0,0.016c0.024,0.081,0.049,0.16,0.072,0.25c0.008,0.04,0.024,0.072,0.031,0.111
		c1.358,5.155,2.316,10.362,2.781,15.669v0.008c0.492,5.515,0.451,10.997-0.087,16.513c0,0.038,0,0.08,0.008,0.111v0.008
		c0,0.018-0.008,0.041-0.008,0.057c-0.691,5.9-1.879,11.682-3.642,17.355c-0.016,0.032-0.016,0.073-0.016,0.098
		c0,0.008,0,0.008,0,0.016c-1.791,5.668-4.116,11.07-6.961,16.277c-0.009,0-0.009,0-0.018,0.025
		c-0.047,0.04-0.097,0.097-0.129,0.153c-2.74,4.79-5.876,9.292-9.391,13.529c-0.078,0.087-0.119,0.168-0.127,0.24
		c-3.297,3.844-6.851,7.404-10.725,10.66c-0.312,0.063-0.618,0.192-0.797,0.337C165.572,186.917,160.806,190.069,155.715,192.745z
		 M104.25,203.841c-0.015,0.103-0.032,0.199-0.041,0.304c-2.788-0.378-5.555-0.868-8.312-1.487c-1.696-0.377-3.369-0.827-5.033-1.31
		c-0.296-0.088-0.449-0.161-0.513-0.259c0.016-0.055,0.032-0.103,0.047-0.161c4.559,1.271,9.165,2.196,13.861,2.783
		C104.26,203.751,104.25,203.8,104.25,203.841z M1.812,125.483c-0.009,0-0.017,0-0.017,0c0.008,0,0.008-0.008,0.008-0.008
		S1.802,125.483,1.812,125.483z M4.053,108.65c0.049-0.948,0.113-1.904,0.193-2.854c0.008-0.064,0.016-0.137,0.025-0.202
		c6.575,0.685,13.16,1.353,19.735,2.027c-0.177,2.105-0.28,4.213-0.322,6.311c-0.023,1.287-0.031,2.572-0.008,3.858
		c0.008,0.618,0.032,1.237,0.05,1.849c0.023,0.617,0.055,1.237,0.087,1.857c0.016,0.256,0.033,0.514,0.049,0.771
		c-6.568,0.594-13.135,1.182-19.712,1.776C3.78,118.9,3.764,113.779,4.053,108.65z M45.18,27.514c-0.007,0-0.007,0.008-0.014,0.008
		c0.007-0.008,0.007-0.016,0.007-0.016L45.18,27.514z M56.378,47.836c0.266-0.233,0.53-0.467,0.804-0.692
		c0.129,0.161,0.257,0.322,0.386,0.475c-3.448,2.901-6.664,6.044-9.646,9.429c-0.105-0.088-0.218-0.176-0.323-0.265
		c0.122-0.146,0.242-0.282,0.371-0.418c0-0.009,0.007-0.016,0.017-0.016c0.611-0.595,1.63-1.784,2.178-2.412
		c0.025-0.032,0.048-0.064,0.081-0.096c1.688-1.809,3.432-3.545,5.256-5.217C55.792,48.358,56.082,48.101,56.378,47.836z
		 M173.16,183.742c-0.129-0.153-0.249-0.306-0.371-0.458c1.306-1.142,4.954-4.391,5.259-4.68c1.553-1.486,3.023-3.046,4.447-4.646
		c0.087,0.081,0.176,0.153,0.263,0.227v0.008C179.761,177.601,176.576,180.768,173.16,183.742z M206.522,124.753
		c0.008,0,0.008,0,0.019,0c-0.011,0-0.011,0-0.011,0.008C206.53,124.761,206.53,124.753,206.522,124.753z M226.692,107.637
		c0.074,0.982,0.129,1.961,0.168,2.942c0.017,0.179,0.024,0.354,0.024,0.532c0.186,4.75,0.064,9.494-0.328,14.244
		c-6.576-0.675-13.152-1.35-19.728-2.032c0.167-2.011,0.271-4.021,0.312-6.022c0.032-1.311,0.032-2.62,0.008-3.931
		c-0.016-0.643-0.031-1.278-0.065-1.922c-0.024-0.643-0.055-1.286-0.095-1.92c-0.016-0.266-0.032-0.531-0.058-0.789
		c6.574-0.586,13.144-1.173,19.713-1.76C226.666,107.195,226.683,107.42,226.692,107.637z M194.094,157.808
		c-0.039-0.016-0.088-0.023-0.137-0.023c1.561-2.87,2.958-5.812,4.196-8.811c-0.015,0.064-0.041,0.105-0.048,0.137
		C196.948,152.093,195.579,154.978,194.094,157.808z M192.471,160.461c0.122,0.081,0.023,0.169-0.218,0.588
		c-0.876,1.511-1.834,2.982-2.797,4.444c-1.375,2.083-2.862,4.084-4.413,6.037c-0.017-0.015-0.041-0.031-0.058-0.049
		c-0.057-0.047-0.12-0.088-0.191-0.111C187.606,167.905,190.172,164.272,192.471,160.461z M213.589,168.692
		c-5.886-3.294-11.778-6.582-17.663-9.871c2.511-4.639,4.625-9.438,6.338-14.423c6.379,1.987,12.763,3.981,19.147,5.967
		C219.354,156.716,216.717,162.8,213.589,168.692z M203.233,141.44c0-0.008,0.008-0.016,0.008-0.023
		c0.219-0.322,0.562-1.641,0.958-3.4c0.007-0.023,0.016-0.057,0.023-0.088c1.012-3.924,1.77-7.895,2.292-11.922
		c6.584,0.683,13.16,1.357,19.743,2.041c-0.779,6.576-2.073,13.008-3.939,19.35C215.961,145.412,209.592,143.427,203.233,141.44z
		 M92.859,29.572c-0.072-0.282-0.153-0.556-0.233-0.837c4.164-1.053,8.369-1.833,12.638-2.314c0.022,0.264,0.048,0.539,0.072,0.803
		C101.122,27.738,96.967,28.518,92.859,29.572z M109.083,26.58c-0.016-0.257-0.041-0.514-0.065-0.771
		c4.487-0.298,8.972-0.226,13.458,0.152c-0.032,0.216-0.05,0.426-0.072,0.635C117.959,26.284,113.52,26.267,109.083,26.58z
		 M126.188,26.483c3.401,0.443,6.76,1.038,10.105,1.833c0.387,0.089,3.288,1.109,3.866,0.836c0.023,0.008,0.04,0.008,0.065,0.016
		v0.008c-0.042,0.105-0.089,0.226-0.137,0.338c0,0.008,0,0.016-0.008,0.016c-4.431-1.294-9.325-2.612-13.916-2.846
		C126.174,26.62,126.181,26.558,126.188,26.483z M171.038,45.343c0.499,0.056,0.668,0.185,0.515,0.402
		C171.385,45.601,171.215,45.464,171.038,45.343z M185.523,56.18c-2.032-2.372-4.172-4.638-6.429-6.785
		c-1.73-1.752-3.217-3.151-3.723-3.368c-0.008-0.009-0.018-0.017-0.026-0.024c4.293-5.129,8.588-10.266,12.872-15.403
		c4.591,4.02,8.81,8.345,12.717,13.032C195.789,47.811,190.653,51.992,185.523,56.18z M172.976,44.049
		c-3.665-2.926-7.524-5.547-11.584-7.862c3.287-5.877,6.577-11.752,9.856-17.629c5.111,2.998,9.985,6.367,14.582,10.122
		C181.537,33.8,177.262,38.928,172.976,44.049z M168.393,16.733c-3.312,5.924-6.621,11.865-9.949,17.791
		c-4.594-2.404-9.358-4.381-14.286-5.998c2.059-6.568,4.122-13.137,6.175-19.711c1.091,0.37,2.168,0.755,3.244,1.156
		c0.869,0.33,1.729,0.661,2.584,1.005c1.446,0.579,2.877,1.191,4.299,1.833c1.945,0.867,3.859,1.792,5.756,2.765
		C166.947,15.952,167.669,16.339,168.393,16.733z M143.609,30.367c2.733,0.932,5.417,1.985,8.071,3.168
		c1.423,0.626,2.813,1.325,4.195,2.041c0.37,0.185,0.667,0.306,0.9,0.394c0,0,0,0,0.009,0c0.169,0.08,0.337,0.177,0.507,0.274
		c0.056,0.055,0.073,0.127,0.056,0.216c-4.444-2.332-9.061-4.245-13.825-5.804C143.555,30.56,143.585,30.463,143.609,30.367z
		 M160.394,38.06c1.803,1.061,3.555,2.179,5.276,3.368c-0.878-0.579-4.036-2.5-5.309-3.304
		C160.372,38.1,160.387,38.084,160.394,38.06z M103.261,4.047c0.604,6.793,1.222,13.602,1.833,20.403
		c-4.396,0.522-8.713,1.317-12.998,2.412c-1.858-6.551-3.716-13.103-5.573-19.656C92.04,5.759,97.604,4.698,103.261,4.047z
		 M88.792,29.282c0.121,0.426,0.242,0.861,0.37,1.287c-4.647,1.461-9.155,3.255-13.529,5.401c-0.186-0.354-0.378-0.715-0.564-1.078
		c0-0.024,3.562-1.721,3.861-1.857C82.12,31.557,85.424,30.334,88.792,29.282z M202.182,185.8
		c-5.21-4.349-10.411-8.698-15.611-13.039c0.176-0.169,0.569-0.684,1.094-1.415c0.047-0.071,0.105-0.146,0.159-0.218
		c2.356-3.022,4.526-6.166,6.504-9.453c5.878,3.28,11.768,6.576,17.662,9.871C209.088,176.555,205.813,181.298,202.182,185.8z
		 M221.278,80.31c0.267,0.79,0.521,1.587,0.765,2.386c0.088,0.277,0.178,0.553,0.26,0.833c-6.325,1.801-12.646,3.586-18.971,5.378
		c-1.544-5.097-3.509-10.009-5.9-14.768c5.764-3.023,11.518-6.038,17.281-9.06c2.421,4.743,4.535,9.599,6.319,14.495
		C221.116,79.819,221.195,80.065,221.278,80.31z M213.275,62.322c-5.774,3.023-11.537,6.045-17.308,9.069
		c-2.516-4.535-5.36-8.86-8.585-12.935c5.127-4.173,10.266-8.361,15.401-12.533c0.231,0.281,0.449,0.563,0.668,0.853
		C207.094,51.733,210.382,56.943,213.275,62.322z M140.82,27.44c-4.751-1.318-9.576-2.251-14.478-2.837
		c0.708-6.817,1.397-13.65,2.097-20.468c6.271,0.789,12.42,2.051,18.491,3.819C144.896,14.45,142.854,20.946,140.82,27.44z
		 M83.839,7.696c1.906,6.736,3.819,13.474,5.725,20.21c-0.13,0.089-0.242,0.193-0.314,0.306c-5.049,1.543-9.929,3.465-14.657,5.788
		c-3.263-6.229-6.542-12.468-9.822-18.699c0.828-0.442,1.665-0.869,2.508-1.286C72.657,11.467,78.182,9.361,83.839,7.696z
		 M71.742,36.67c0.169,0.32,0.337,0.65,0.514,0.972c-1.953,0.828-8.248,5.298-11.72,7.847c-0.209-0.266-0.427-0.531-0.635-0.79
		C63.646,41.718,67.593,39.049,71.742,36.67z M45.462,59.491c0.072,0.057,0.145,0.122,0.217,0.187
		c-2.78,3.432-5.29,7.041-7.541,10.835c-0.096-0.047-0.185-0.104-0.273-0.153c0.644-0.233,2.372-3.52,2.621-3.906
		C42.013,64.042,43.693,61.735,45.462,59.491z M29.007,69.17c1.824,1.014,3.657,2.035,5.475,3.047
		c-2.493,4.646-4.55,9.454-6.197,14.454c-6.36-1.994-12.711-3.97-19.07-5.964c0.572-1.793,1.189-3.57,1.857-5.322
		c0.008-0.041,0.023-0.072,0.048-0.105c1.921-4.349,4.566-10.129,5.844-12.837C20.977,64.686,24.995,66.928,29.007,69.17z
		 M8.345,83.577c6.344,1.978,12.671,3.956,18.997,5.94c-0.128,0.169-0.451,1.616-0.845,3.594c0,0,0,0.007,0,0.016
		c-0.988,3.916-1.703,7.886-2.186,11.905c-4.461-0.458-8.906-0.916-13.36-1.374c-2.154-0.217-4.317-0.441-6.471-0.659
		C4.711,100.9,5,98.826,5.348,96.76c0-0.039,0.008-0.072,0.025-0.104C6.312,92.082,7.671,86.262,8.345,83.577z M69.74,192.223
		c-1.954-1.173-3.859-2.427-5.725-3.747c-1.43-1.004-2.804-2.081-4.172-3.174c-0.25-0.193-0.393-0.354-0.465-0.49
		C62.271,186.885,67.585,190.606,69.74,192.223z M73.165,194.11c0.16,0.082,0.312,0.164,0.473,0.242
		C73.036,194.595,72.874,194.515,73.165,194.11z M86.903,199.965v0.007c-0.25-0.078-0.499-0.168-0.748-0.257
		C86.405,199.804,86.653,199.884,86.903,199.965z M125.185,205.68c4.421-0.497,8.787-1.292,13.095-2.417h0.008
		c0.099,0.022,0.208,0.031,0.323,0.031c1.895,6.727,3.785,13.463,5.691,20.194c-5.677,1.511-11.417,2.57-17.251,3.173
		C126.432,219.669,125.812,212.667,125.185,205.68z M158.393,193.822c-0.031-0.063-0.063-0.12-0.095-0.185
		c0-0.008-0.01-0.015-0.01-0.015c-0.017-0.042-0.04-0.073-0.07-0.104c4.146-2.276,8.095-4.842,11.854-7.703
		c0.058,0.064,0.113,0.13,0.171,0.193C166.488,188.919,162.548,191.524,158.393,193.822z M206.698,105.901
		c-0.49-4.903-1.372-9.703-2.635-14.47c6.31-1.792,12.636-3.577,18.956-5.386c1.599,5.949,2.707,11.97,3.367,18.088
		C219.826,104.72,213.258,105.305,206.698,105.901z M61.95,16.822c3.239,6.173,6.487,12.339,9.728,18.522
		c-0.137,0.095-0.291,0.241-0.338,0.384c-4.301,2.348-8.376,5.017-12.26,7.983c-4.397-5.402-8.802-10.796-13.2-16.198
		C50.929,23.55,56.306,19.964,61.95,16.822z M43.935,58.287c-2.853,3.544-5.435,7.267-7.75,11.183
		c-5.877-3.281-11.744-6.553-17.614-9.833c2.879-5.057,6.143-9.832,9.775-14.356C33.54,49.612,38.741,53.954,43.935,58.287z
		 M24.11,125.138c0.506,4.695,1.367,9.311,2.558,13.875c-6.32,1.802-12.647,3.604-18.965,5.402
		c-1.542-5.764-2.645-11.592-3.288-17.523C10.974,126.312,17.542,125.726,24.11,125.138z M57.898,186.589
		c3.569,2.828,7.322,5.377,11.27,7.644c-3.295,5.934-6.599,11.842-9.903,17.759c-5.017-2.942-9.775-6.248-14.253-9.968
		C49.306,196.879,53.606,191.732,57.898,186.589z M72.087,196.042c4.583,2.427,9.317,4.445,14.253,6.068
		c-2.019,6.504-4.037,13.016-6.054,19.527c-6.245-2.114-12.26-4.776-18.07-7.926C65.512,207.819,68.799,201.926,72.087,196.042z
		 M102.337,228.479c-0.009-0.009-0.009-0.023,0-0.033c0,0.01,0,0.019,0.008,0.024C102.346,228.47,102.346,228.479,102.337,228.479z
		 M168.706,213.559c-3.142-6.036-6.302-12.059-9.454-18.096c4.438-2.42,8.658-5.169,12.662-8.272
		c4.271,5.25,8.538,10.49,12.814,15.732C179.697,206.862,174.333,210.431,168.706,213.559z M41.219,201.869c0,0-0.009,0-0.009,0.008
		l-0.008-0.008C41.209,201.869,41.209,201.869,41.219,201.869z"/>
	<path fill="#FFFFFF" d="M80.44,107.443c-0.419-0.296-0.861-0.546-1.319-0.731c-0.049-0.023-0.097-0.048-0.145-0.08
		c-0.008-0.008-0.023-0.017-0.039-0.017c-0.049-0.025-0.105-0.056-0.153-0.079c-0.033-0.017-0.072-0.042-0.105-0.058
		c-0.232-0.128-0.497-0.16-0.755-0.121c-2.741-0.514-5.659,0.82-6.664,3.747c-1.287,3.745,2.267,6.624,5.724,6.399
		c0.345-0.025,0.948-0.234,1.261-0.579c9.622-2.019,19.598,0.465,28.064,5.338c0.072,0.04,0.145,0.073,0.234,0.096
		c0.127,0.202,0.273,0.394,0.434,0.571c-0.017,0.041-0.025,0.088-0.007,0.129c3.135,9.181,3.681,19.783-0.09,28.812c0,0,0,0-0.007,0
		c-0.047,0.048-0.097,0.088-0.129,0.137c-0.386,0.515-0.666,1.068-0.843,1.64c0,0,0,0,0,0.008c0,0,0,0,0,0.009
		c-0.868,2.878,0.901,6.19,4.334,6.343c3.464,0.145,6.47-2.131,6.47-5.66v-0.008c0.007-0.032,0.007-0.072,0-0.113v-0.008
		c0.04-0.048,0.055-0.097,0.049-0.145c-2.549-10.273-0.249-20.699,4.841-29.856c0.262-0.185,0.479-0.346,0.698-0.515
		c0,0,0-0.008,0.008-0.008c0.408-0.04,0.393-0.111,0.112-0.088c0.05-0.041,0.097-0.088,0.152-0.129
		c9.021-2.773,18.965-3.135,27.662,0.845c0.071,0.063,0.144,0.112,0.224,0.152c0.009,0.015,0.009,0.015,0.019,0.015
		c0.055,0.072,0.134,0.137,0.247,0.201c0.21,0.112,0.41,0.226,0.613,0.338c0.224,0.121,0.49,0.177,0.77,0.162
		c0.075,0,0.146-0.008,0.217-0.017c0.057,0,0.113-0.017,0.164-0.032c0.021,0,0.046-0.008,0.071-0.016
		c0.08-0.016,0.151-0.041,0.224-0.073c0.017,0,0.032,0,0.05-0.015c2.941,0.127,5.836-1.432,6.429-4.568
		c0.661-3.44-2.105-4.879-4.901-4.919c-0.009-0.008-0.016-0.008-0.024-0.008c-0.005-0.003-0.014-0.002-0.018-0.004
		c-0.355-0.158-0.986-0.034-1.229,0.043c-0.081,0.024-0.16,0.049-0.241,0.073c-0.618,0.105-1.205,0.274-1.729,0.507
		c-0.127,0.057-0.241,0.111-0.336,0.168l-0.008,0.008c-8.998,1.543-18.227-1.166-26.121-5.506c-0.016-0.049-0.049-0.097-0.078-0.145
		c-0.45-0.644-0.91-1.199-1.456-1.761c-2.876-9.365-3.464-19.808,0.765-28.835c0.023-0.049,0.04-0.088,0.049-0.129
		c0.008-0.007,0.008-0.007,0.008-0.007c0.046-0.049,0.079-0.096,0.111-0.145c0.047-0.097,0.105-0.186,0.162-0.273
		c0.048-0.097,0.104-0.194,0.151-0.29c0.097-0.168,0.113-0.338,0.055-0.482c1.689-9.012-14.131-6.833-10.361,1.551
		c2.01,9.599-0.682,19.889-5.603,28.25c-0.024,0.04-0.04,0.071-0.047,0.105c-0.128,0.103-0.257,0.208-0.387,0.329
		c-0.007,0-0.016,0.008-0.032,0.024c-0.177,0.113-0.345,0.257-0.499,0.41l-0.007,0.007c-0.635,0.202-1.239,0.435-2.267,0.7
		c-8.087,2.042-16.754,1.971-24.462-1.358C80.696,107.67,80.6,107.557,80.44,107.443z M153.812,121.577
		c-0.164-0.097-0.322-0.193-0.481-0.273c-0.019-0.008-0.028-0.017-0.043-0.025c-0.023-0.008-0.039-0.023-0.063-0.031
		c-0.009,0-0.009,0-0.009,0c-1.39-0.973-1.88-2.91-0.339-4.154c0.084-0.066,0.146-0.122,0.202-0.187c0,0,0,0,0.008,0
		c0.162-0.048,0.322-0.097,0.481-0.145C156.08,117.155,156.109,121.946,153.812,121.577z M148.369,118.016
		c-0.121,0.556-0.186,1.046-0.176,1.519c-0.958-0.368-2.036-0.65-3.401-0.948c-3.771-0.788-7.774-0.667-11.585-0.376
		c-2.5,0.183-5.474,0.32-8.055,1.133c0.885-1.552,1.062-3.425,0.997-5.17c0-0.024,0-0.048-0.008-0.064
		c4.099,2.195,9.735,3.039,13.698,3.594c2.869,0.402,5.771,0.289,8.632-0.063C148.433,117.75,148.402,117.879,148.369,118.016z
		 M76.589,109.221c0.346,0.185,0.699,0.369,1.053,0.539c0.973,1.222,1.246,2.886-0.563,3.779c-0.008,0.007-0.008,0.007-0.015,0.007
		c-0.009,0-0.023,0-0.033,0.009c-0.007,0-0.007,0-0.016,0c-1.397,0.209-2.178-1.479-2.186-2.645
		C75.053,109.752,75.592,109.165,76.589,109.221z M118.479,83.247c-0.008-0.289-0.024-0.57-0.041-0.852
		c-0.024-0.33-0.039-0.603-0.071-0.844c0.257-0.017,0.505-0.041,0.756-0.064c-0.122,0.306-0.273,0.723-0.482,1.303
		C118.584,82.942,118.536,83.094,118.479,83.247z M119.484,80.538c-0.225-0.008-0.418-0.048-0.579-0.121
		c0.218-0.016,0.442-0.048,0.659-0.088C119.54,80.394,119.509,80.465,119.484,80.538z M117.088,95.725
		c0.121,3.295,0.653,6.591,1.4,9.79c-1.712-0.361-3.354-0.354-4.984-0.032C114.998,102.332,116.188,99.084,117.088,95.725z
		 M120.747,121.938c0.023,0,0.048-0.008,0.071-0.023c-0.016,0.008-0.039,0.023-0.064,0.031
		C120.754,121.946,120.754,121.938,120.747,121.938z M113.423,122.524c-0.644-0.272-1.246-0.643-1.825-1.084c0,0,0,0-0.008,0
		c-0.055-0.049-0.111-0.096-0.176-0.153c-1.657-1.438-2.757-3.648-2.984-5.916c0-0.015,0-0.033,0-0.05
		c-0.096-2.451,0.925-4.919,3.144-6.437c0.105-0.073,0.209-0.162,0.297-0.266c1.014-0.49,2.486-0.853,3.899-0.869
		c1.343,0.185,2.629,0.812,3.794,1.745c0.033,0.072,0.065,0.144,0.09,0.224c0.016,0.049,0.038,0.09,0.079,0.129
		c0.08,0.121,0.233,0.186,0.409,0.216c0.202,0.202,0.396,0.419,0.563,0.645c0,0,0.009,0,0.009,0.007
		c0.072,0.114,0.144,0.234,0.202,0.354c-0.05,0.105-0.025,0.186,0.03,0.258c0.04,0.096,0.121,0.177,0.242,0.241
		c0.056,0.032,0.112,0.065,0.17,0.096c0.11,0.209,0.206,0.411,0.289,0.619c0.031,0.065,0.062,0.128,0.08,0.193
		c1.117,2.845,0.754,5.787-1.23,8.256c0,0,0,0-0.009,0.008c-0.265,0.113-0.787,0.409-0.756,0.724c0,0.033,0,0.057,0.017,0.088
		c-0.152,0.098-0.296,0.201-0.452,0.299c-0.278,0.08-0.545,0.225-0.737,0.401c-1.834,0.86-3.571,0.869-5.073,0.298
		C113.464,122.542,113.439,122.532,113.423,122.524z M117.443,123.94c-0.161,0.112-0.371,0.193-0.667,0.233
		c-0.331,0.04-0.652,0.056-0.981,0.04C116.35,124.174,116.896,124.077,117.443,123.94z M110.835,150.188h0.007
		c0.201,0.016,0.371,0.064,0.522,0.137c-0.216,0.015-0.425,0.055-0.643,0.104C110.763,150.347,110.804,150.268,110.835,150.188z
		 M111.479,149.198c-0.299,0.008-0.571,0.032-0.812,0.057c0.449-0.522,0.778-1.021,1.157-2.115c0.047,0.684,0.122,1.369,0.208,2.043
		C111.84,149.183,111.663,149.19,111.479,149.198z M109.902,155.349c-0.505-0.724-0.676-1.471-0.482-2.235
		c0.25-0.458,0.489-0.917,0.716-1.382c0.015-0.034,0.031-0.064,0.031-0.098c0.033-0.048,0.041-0.088,0.041-0.128
		c1.124-0.724,2.209,0.989,2.571,1.712v0.008C113.095,154.408,112.627,157.953,109.902,155.349z M113.232,135.163
		c-0.009-3.04-0.163-7.092-1.271-10.25c1.439,0.362,2.942,0.41,4.517,0.201c0.306-0.04,0.627-0.097,0.94-0.162
		c-2.33,2.613-3.143,6.568-4.139,10.026C113.263,135.042,113.246,135.099,113.232,135.163z M120.562,78.158
		c-0.023,0.064-0.039,0.121-0.054,0.177c0,0,0,0,0,0.007c-0.043,0.081-0.084,0.163-0.123,0.243c-1.125,0.827-2.01,0.691-2.668-0.41
		c0-0.008,0-0.008-0.007-0.017c-0.115-0.514-0.259-1.037-0.437-1.536c-0.008-0.031-0.017-0.056-0.031-0.08
		C117.562,73.697,121.822,75.128,120.562,78.158z M105.04,112.677c-0.475,1.311-0.492,2.726-0.322,4.093
		c-3.458-1.77-7.887-2.59-11.19-3.305c-3.57-0.764-7.155-0.844-10.773-0.604c-0.329,0.024-0.617,0.048-0.876,0.082
		c0.064-0.169,0.114-0.347,0.153-0.548c0.081-0.425,0.128-0.796,0.144-1.125c0.917,0.266,1.842,0.507,2.798,0.715
		c3.827,0.86,7.838,0.741,11.721,0.491c2.87-0.185,6.11-0.401,8.923-1.374C105.384,111.641,105.208,112.211,105.04,112.677z
		 M124.974,120.683c2.002-0.987,4.841-1.244,7.334-1.332C129.829,119.616,127.371,120.073,124.974,120.683z M147.315,116.689
		c2.235-0.152,1.616-0.121,2.606-0.739c-0.22,0.175-0.435,0.385-0.645,0.626c-0.072,0.04-0.129,0.089-0.192,0.146
		c-2.17,0.192-4.817,0.232-7.582,0.033C143.44,116.874,145.379,116.817,147.315,116.689z M137.772,116.288
		c0.476,0.096,0.958,0.168,1.431,0.24c-2.997-0.369-6.021-1.044-8.602-2.13C132.94,115.185,135.33,115.806,137.772,116.288z
		 M99.66,110.974c2.315-0.306,4.615-0.812,6.882-1.408c-3.264,2.227-8.666,2.002-12.413,2.091c-2.018,0.048-3.923-0.065-5.725-0.418
		C92.097,111.625,95.858,111.472,99.66,110.974z"/>
	<path fill="#D01E27" d="M226.885,111.111c0.186,4.75,0.064,9.494-0.328,14.244c-6.576-0.675-13.152-1.35-19.728-2.032
		c0.167-2.011,0.271-4.021,0.312-6.022c0.032-1.311,0.032-2.62,0.008-3.931c-0.016-0.643-0.031-1.286-0.065-1.922
		c-0.016-0.643-0.047-1.278-0.095-1.92c-0.008-0.257-0.032-0.523-0.058-0.789c6.574-0.586,13.144-1.173,19.713-1.76
		c0.021,0.217,0.038,0.442,0.048,0.659c0.074,0.982,0.129,1.961,0.168,2.942C226.877,110.758,226.885,110.933,226.885,111.111z"/>
	<path fill="#D01E27" d="M221.032,79.574c0.452,1.309,0.878,2.621,1.271,3.955c-6.325,1.801-12.646,3.586-18.971,5.378
		c-1.544-5.097-3.509-10.009-5.9-14.768c5.764-3.023,11.518-6.038,17.281-9.06C217.134,69.822,219.248,74.678,221.032,79.574z"/>
	<path fill="#D01E27" d="M221.411,150.365c-2.058,6.351-4.694,12.435-7.822,18.327c-5.886-3.294-11.778-6.582-17.663-9.871
		c2.511-4.639,4.625-9.438,6.338-14.423C208.643,146.386,215.026,148.38,221.411,150.365z"/>
	<path fill="#D01E27" d="M200.935,43.631c-5.146,4.18-10.281,8.361-15.411,12.549c-2.032-2.372-4.172-4.638-6.429-6.785
		c-1.73-1.752-3.217-3.151-3.723-3.368c-0.008-0.009-0.018-0.017-0.026-0.024c4.293-5.129,8.588-10.266,12.872-15.403
		C192.809,34.62,197.027,38.945,200.935,43.631z"/>
	<path fill="#D01E27" d="M195.059,184.489c1.623,1.351,3.249,2.709,4.872,4.076c-1.036,1.214-2.105,2.396-3.199,3.562
		c-2.274,2.161-5.242,4.976-7.525,7.113c-0.014,0.017-0.031,0.034-0.049,0.05c-0.659,0.562-1.315,1.126-1.993,1.672
		c-2.731-3.369-5.475-6.736-8.214-10.097c-1.528-1.882-3.058-3.763-4.584-5.636c-0.08-0.097,0.018-0.281,0.226-0.522
		c0.627-0.523,1.247-1.054,1.849-1.601c0.779-0.603,1.562-1.174,1.897-1.485c2.097-1.923,4.051-4.013,5.94-6.144
		C187.871,178.484,191.46,181.483,195.059,184.489z"/>
	<path fill="#D01E27" d="M168.393,16.733c-3.312,5.924-6.621,11.865-9.949,17.791c-4.594-2.404-9.358-4.381-14.286-5.998
		c2.059-6.568,4.122-13.137,6.175-19.711c1.091,0.37,2.168,0.755,3.244,1.156c0.869,0.33,1.729,0.661,2.584,1.005
		c1.446,0.579,2.877,1.191,4.299,1.833c1.945,0.867,3.859,1.792,5.756,2.765C166.947,15.952,167.669,16.339,168.393,16.733z"/>
	<path fill="#D01E27" d="M155.788,197c3.208,6.109,6.408,12.235,9.606,18.351c-5.724,2.967-11.696,5.49-17.861,7.534
		c-1.907-6.785-3.82-13.58-5.741-20.356C146.606,201.073,151.271,199.226,155.788,197z"/>
	<path fill="#D01E27" d="M124.775,3.573c-0.717,6.938-1.424,13.868-2.131,20.805c-4.591-0.33-9.165-0.345-13.755-0.015
		c-0.627-6.979-1.253-13.957-1.874-20.934c0.572-0.055,1.133-0.097,1.704-0.129C114.075,3.026,119.421,3.115,124.775,3.573z"/>
	<path fill="#D01E27" d="M121.428,206.219c0.638,7.052,1.271,14.109,1.9,21.157c-0.355,0.024-0.708,0.05-1.054,0.066
		c-4.759-0.042-9.535-0.074-14.301-0.113c-0.797-0.049-1.593-0.112-2.388-0.186c0.706-6.993,1.422-13.996,2.129-20.981
		c2.413,0.184,4.823,0.29,7.251,0.307c0.008,0,0.016,0,0.023,0C117.145,206.444,119.282,206.363,121.428,206.219z"/>
	<path fill="#D01E27" d="M83.839,7.696c1.906,6.736,3.819,13.474,5.725,20.21c-0.13,0.089-0.242,0.193-0.314,0.306
		c-5.049,1.543-9.929,3.465-14.657,5.788c-3.263-6.229-6.542-12.468-9.822-18.699c0.828-0.442,1.665-0.869,2.508-1.286
		C72.657,11.467,78.182,9.361,83.839,7.696z"/>
	<path fill="#D01E27" d="M86.341,202.11c-2.019,6.504-4.037,13.016-6.054,19.527c-6.245-2.114-12.26-4.776-18.07-7.926
		c3.295-5.893,6.583-11.786,9.871-17.67C76.67,198.469,81.404,200.487,86.341,202.11z"/>
	<path fill="#D01E27" d="M56.17,45.882c-0.048,0.041-0.097,0.072-0.137,0.121c-0.36,0.201-1.19,0.932-2.228,1.938
		c-0.014,0.016-0.023,0.022-0.032,0.031c-2.669,2.404-5.192,4.96-7.564,7.654c-3.586-2.99-7.187-5.997-10.772-9.003
		c-1.584-1.318-3.175-2.646-4.758-3.972c1.212-0.9,2.041-2.339,1.935-2.765c0.403-0.458,0.823-0.917,1.256-1.375
		c2.839-2.813,6.721-6.456,8.955-8.505c0,0,0.009-0.016,0.016-0.016c0.073-0.064,0.153-0.129,0.235-0.193
		c2.997,3.69,6.012,7.388,9.019,11.086C53.46,42.553,54.811,44.21,56.17,45.882z"/>
	<path fill="#D01E27" d="M55.422,184.603c-4.269,5.112-8.538,10.225-12.806,15.338c-0.25-0.21-0.5-0.428-0.747-0.643
		c-1.93-1.826-4.897-4.687-7.453-7.195c-0.048-0.057-0.105-0.112-0.161-0.169c-1.552-1.657-3.065-3.359-4.519-5.112
		c5.146-4.174,10.283-8.353,15.429-12.533C48.308,177.995,51.725,181.427,55.422,184.603z"/>
	<path fill="#D01E27" d="M29.007,69.17c1.824,1.014,3.657,2.035,5.475,3.047c-2.493,4.646-4.55,9.454-6.197,14.454
		c-6.36-1.994-12.711-3.97-19.07-5.964c0.572-1.793,1.189-3.57,1.857-5.322c0.008-0.041,0.023-0.072,0.048-0.105
		c1.921-4.349,4.566-10.129,5.844-12.837C20.977,64.686,24.995,66.928,29.007,69.17z"/>
	<path fill="#D01E27" d="M33.412,156.521c0.024,0.057,0.048,0.112,0.08,0.169c-5.853,3.055-11.689,6.109-17.541,9.182
		c-0.25-0.482-0.491-0.965-0.716-1.449c-2.701-5.617-4.969-11.391-6.801-17.378c6.335-1.794,12.654-3.595,18.98-5.387
		C28.991,146.788,30.984,151.739,33.412,156.521z"/>
	<path fill="#D01E27" d="M4.271,105.594c6.575,0.685,13.16,1.353,19.735,2.027c-0.177,2.105-0.28,4.213-0.322,6.311
		c-0.023,1.287-0.031,2.572-0.008,3.858c0.008,0.608,0.025,1.229,0.05,1.849c0.023,0.617,0.047,1.237,0.087,1.857
		c0.016,0.256,0.033,0.514,0.049,0.771c-6.568,0.594-13.135,1.182-19.712,1.776c-0.37-5.145-0.386-10.266-0.097-15.395
		c0.049-0.948,0.113-1.904,0.193-2.854C4.254,105.732,4.262,105.66,4.271,105.594z"/>
</g>
</svg>
